<mxfile host="Electron" agent="Mozilla/5.0 (Windows NT 10.0; Win64; x64) AppleWebKit/537.36 (KHTML, like Gecko) draw.io/26.0.16 Chrome/132.0.6834.196 Electron/34.2.0 Safari/537.36" version="26.0.16" pages="4">
  <diagram name="Main" id="eWMf5zg_vRDO7OvSlJsA">
    <mxGraphModel dx="1434" dy="836" grid="1" gridSize="10" guides="1" tooltips="1" connect="1" arrows="1" fold="1" page="1" pageScale="1" pageWidth="827" pageHeight="1169" background="none" math="0" shadow="0">
      <root>
        <mxCell id="0" />
        <mxCell id="1" parent="0" />
        <UserObject label="" link="data:page/id,Zr1MvBtP21QMfITxY6RF" linkTarget="_blank" id="V1Li_RwNU9hOXrcR7OfV-1">
          <mxCell style="sketch=0;outlineConnect=0;fontColor=#232F3E;gradientColor=none;fillColor=#232F3D;strokeColor=none;dashed=0;verticalLabelPosition=bottom;verticalAlign=top;align=center;html=1;fontSize=12;fontStyle=0;aspect=fixed;pointerEvents=1;shape=mxgraph.aws4.user;" vertex="1" parent="1">
            <mxGeometry x="60" y="280" width="200" height="200" as="geometry" />
          </mxCell>
        </UserObject>
        <mxCell id="V1Li_RwNU9hOXrcR7OfV-2" value="" style="sketch=0;outlineConnect=0;fontColor=#232F3E;gradientColor=none;fillColor=#232F3D;strokeColor=none;dashed=0;verticalLabelPosition=bottom;verticalAlign=top;align=center;html=1;fontSize=12;fontStyle=0;aspect=fixed;pointerEvents=1;shape=mxgraph.aws4.user;" vertex="1" parent="1">
          <mxGeometry x="540" y="280" width="200" height="200" as="geometry" />
        </mxCell>
        <mxCell id="V1Li_RwNU9hOXrcR7OfV-3" value="&lt;h3&gt;&lt;font style=&quot;font-size: 25px;&quot;&gt;Http User&lt;/font&gt;&lt;/h3&gt;" style="text;html=1;align=center;verticalAlign=middle;whiteSpace=wrap;rounded=0;" vertex="1" parent="1">
          <mxGeometry x="82.5" y="220" width="155" height="30" as="geometry" />
        </mxCell>
        <mxCell id="V1Li_RwNU9hOXrcR7OfV-4" value="&lt;h3&gt;&lt;font style=&quot;font-size: 25px;&quot;&gt;WebSocket User&lt;/font&gt;&lt;/h3&gt;" style="text;html=1;align=center;verticalAlign=middle;whiteSpace=wrap;rounded=0;" vertex="1" parent="1">
          <mxGeometry x="536.25" y="220" width="207.5" height="30" as="geometry" />
        </mxCell>
      </root>
    </mxGraphModel>
  </diagram>
  <diagram id="Zr1MvBtP21QMfITxY6RF" name="Http Diagrams">
    <mxGraphModel dx="1434" dy="836" grid="1" gridSize="10" guides="1" tooltips="1" connect="1" arrows="1" fold="1" page="1" pageScale="1" pageWidth="827" pageHeight="1169" math="0" shadow="0">
      <root>
        <mxCell id="0" />
        <mxCell id="1" parent="0" />
        <UserObject label="SocialService" link="data:page/id,6u9Cx2rs3pxBeEN7AO2S" linkTarget="_blank" id="WnMpKrObMQ8CIwje0ubQ-1">
          <mxCell style="rounded=1;whiteSpace=wrap;html=1;fillColor=#f8cecc;strokeColor=#b85450;" vertex="1" parent="1">
            <mxGeometry x="80" y="90" width="150" height="60" as="geometry" />
          </mxCell>
        </UserObject>
      </root>
    </mxGraphModel>
  </diagram>
  <diagram id="6u9Cx2rs3pxBeEN7AO2S" name="SocialService Diagrams">
    <mxGraphModel dx="1434" dy="836" grid="1" gridSize="10" guides="1" tooltips="1" connect="1" arrows="1" fold="1" page="1" pageScale="1" pageWidth="827" pageHeight="1169" math="0" shadow="0">
      <root>
        <mxCell id="0" />
        <mxCell id="1" parent="0" />
        <UserObject label="Class Diagram" link="data:page/id,ignQwIC4kmFuP9U8Nt55" id="U_pKo33obgdlsFE44hj8-1">
          <mxCell style="rounded=1;whiteSpace=wrap;html=1;" vertex="1" parent="1">
            <mxGeometry x="80" y="50" width="120" height="60" as="geometry" />
          </mxCell>
        </UserObject>
      </root>
    </mxGraphModel>
  </diagram>
  <diagram id="ignQwIC4kmFuP9U8Nt55" name="SocialService Class Diagram">
    <mxGraphModel dx="1687" dy="984" grid="1" gridSize="10" guides="1" tooltips="1" connect="1" arrows="1" fold="1" page="1" pageScale="1" pageWidth="827" pageHeight="1169" math="0" shadow="0">
      <root>
        <mxCell id="0" />
        <mxCell id="1" parent="0" />
        <mxCell id="jGIuu4ucEO6D5iqwrdOe-1" value="Profile" style="swimlane;fontStyle=0;childLayout=stackLayout;horizontal=1;startSize=26;fillColor=none;horizontalStack=0;resizeParent=1;resizeParentMax=0;resizeLast=0;collapsible=1;marginBottom=0;whiteSpace=wrap;html=1;" vertex="1" parent="1">
          <mxGeometry x="40" y="80" width="140" height="590" as="geometry" />
        </mxCell>
        <mxCell id="jGIuu4ucEO6D5iqwrdOe-2" value="+ Id: guid" style="text;strokeColor=none;fillColor=none;align=left;verticalAlign=top;spacingLeft=4;spacingRight=4;overflow=hidden;rotatable=0;points=[[0,0.5],[1,0.5]];portConstraint=eastwest;whiteSpace=wrap;html=1;" vertex="1" parent="jGIuu4ucEO6D5iqwrdOe-1">
          <mxGeometry y="26" width="140" height="26" as="geometry" />
        </mxCell>
        <mxCell id="jGIuu4ucEO6D5iqwrdOe-3" value="+ Email: string&amp;nbsp;" style="text;strokeColor=none;fillColor=none;align=left;verticalAlign=top;spacingLeft=4;spacingRight=4;overflow=hidden;rotatable=0;points=[[0,0.5],[1,0.5]];portConstraint=eastwest;whiteSpace=wrap;html=1;" vertex="1" parent="jGIuu4ucEO6D5iqwrdOe-1">
          <mxGeometry y="52" width="140" height="26" as="geometry" />
        </mxCell>
        <mxCell id="jGIuu4ucEO6D5iqwrdOe-4" value="+ FirstName: string" style="text;strokeColor=none;fillColor=none;align=left;verticalAlign=top;spacingLeft=4;spacingRight=4;overflow=hidden;rotatable=0;points=[[0,0.5],[1,0.5]];portConstraint=eastwest;whiteSpace=wrap;html=1;" vertex="1" parent="jGIuu4ucEO6D5iqwrdOe-1">
          <mxGeometry y="78" width="140" height="32" as="geometry" />
        </mxCell>
        <mxCell id="jGIuu4ucEO6D5iqwrdOe-8" value="+ Last&lt;span style=&quot;background-color: transparent; color: light-dark(rgb(0, 0, 0), rgb(255, 255, 255));&quot;&gt;Name: string&lt;/span&gt;" style="text;strokeColor=none;fillColor=none;align=left;verticalAlign=top;spacingLeft=4;spacingRight=4;overflow=hidden;rotatable=0;points=[[0,0.5],[1,0.5]];portConstraint=eastwest;whiteSpace=wrap;html=1;" vertex="1" parent="jGIuu4ucEO6D5iqwrdOe-1">
          <mxGeometry y="110" width="140" height="32" as="geometry" />
        </mxCell>
        <mxCell id="jGIuu4ucEO6D5iqwrdOe-15" value="+ Country: string" style="text;strokeColor=none;fillColor=none;align=left;verticalAlign=top;spacingLeft=4;spacingRight=4;overflow=hidden;rotatable=0;points=[[0,0.5],[1,0.5]];portConstraint=eastwest;whiteSpace=wrap;html=1;" vertex="1" parent="jGIuu4ucEO6D5iqwrdOe-1">
          <mxGeometry y="142" width="140" height="32" as="geometry" />
        </mxCell>
        <mxCell id="jGIuu4ucEO6D5iqwrdOe-14" value="+ PostalCode: string" style="text;strokeColor=none;fillColor=none;align=left;verticalAlign=top;spacingLeft=4;spacingRight=4;overflow=hidden;rotatable=0;points=[[0,0.5],[1,0.5]];portConstraint=eastwest;whiteSpace=wrap;html=1;" vertex="1" parent="jGIuu4ucEO6D5iqwrdOe-1">
          <mxGeometry y="174" width="140" height="32" as="geometry" />
        </mxCell>
        <mxCell id="jGIuu4ucEO6D5iqwrdOe-13" value="+ Latitude: double" style="text;strokeColor=none;fillColor=none;align=left;verticalAlign=top;spacingLeft=4;spacingRight=4;overflow=hidden;rotatable=0;points=[[0,0.5],[1,0.5]];portConstraint=eastwest;whiteSpace=wrap;html=1;" vertex="1" parent="jGIuu4ucEO6D5iqwrdOe-1">
          <mxGeometry y="206" width="140" height="32" as="geometry" />
        </mxCell>
        <mxCell id="jGIuu4ucEO6D5iqwrdOe-19" value="+ Longitude: double" style="text;strokeColor=none;fillColor=none;align=left;verticalAlign=top;spacingLeft=4;spacingRight=4;overflow=hidden;rotatable=0;points=[[0,0.5],[1,0.5]];portConstraint=eastwest;whiteSpace=wrap;html=1;" vertex="1" parent="jGIuu4ucEO6D5iqwrdOe-1">
          <mxGeometry y="238" width="140" height="32" as="geometry" />
        </mxCell>
        <mxCell id="jGIuu4ucEO6D5iqwrdOe-18" value="+ DisplayName: string" style="text;strokeColor=none;fillColor=none;align=left;verticalAlign=top;spacingLeft=4;spacingRight=4;overflow=hidden;rotatable=0;points=[[0,0.5],[1,0.5]];portConstraint=eastwest;whiteSpace=wrap;html=1;" vertex="1" parent="jGIuu4ucEO6D5iqwrdOe-1">
          <mxGeometry y="270" width="140" height="32" as="geometry" />
        </mxCell>
        <mxCell id="jGIuu4ucEO6D5iqwrdOe-17" value="+ Followers: int&lt;div&gt;&lt;br&gt;&lt;/div&gt;" style="text;strokeColor=none;fillColor=none;align=left;verticalAlign=top;spacingLeft=4;spacingRight=4;overflow=hidden;rotatable=0;points=[[0,0.5],[1,0.5]];portConstraint=eastwest;whiteSpace=wrap;html=1;" vertex="1" parent="jGIuu4ucEO6D5iqwrdOe-1">
          <mxGeometry y="302" width="140" height="32" as="geometry" />
        </mxCell>
        <mxCell id="jGIuu4ucEO6D5iqwrdOe-16" value="+ Following: int" style="text;strokeColor=none;fillColor=none;align=left;verticalAlign=top;spacingLeft=4;spacingRight=4;overflow=hidden;rotatable=0;points=[[0,0.5],[1,0.5]];portConstraint=eastwest;whiteSpace=wrap;html=1;" vertex="1" parent="jGIuu4ucEO6D5iqwrdOe-1">
          <mxGeometry y="334" width="140" height="32" as="geometry" />
        </mxCell>
        <mxCell id="jGIuu4ucEO6D5iqwrdOe-23" value="&lt;span style=&quot;&quot;&gt;+ Posts: int&lt;/span&gt;&lt;div&gt;&lt;span style=&quot;&quot;&gt;&lt;br&gt;&lt;/span&gt;&lt;/div&gt;" style="text;strokeColor=none;fillColor=none;align=left;verticalAlign=top;spacingLeft=4;spacingRight=4;overflow=hidden;rotatable=0;points=[[0,0.5],[1,0.5]];portConstraint=eastwest;whiteSpace=wrap;html=1;" vertex="1" parent="jGIuu4ucEO6D5iqwrdOe-1">
          <mxGeometry y="366" width="140" height="32" as="geometry" />
        </mxCell>
        <mxCell id="jGIuu4ucEO6D5iqwrdOe-22" value="+ ImageUrl: string" style="text;strokeColor=none;fillColor=none;align=left;verticalAlign=top;spacingLeft=4;spacingRight=4;overflow=hidden;rotatable=0;points=[[0,0.5],[1,0.5]];portConstraint=eastwest;whiteSpace=wrap;html=1;" vertex="1" parent="jGIuu4ucEO6D5iqwrdOe-1">
          <mxGeometry y="398" width="140" height="32" as="geometry" />
        </mxCell>
        <mxCell id="jGIuu4ucEO6D5iqwrdOe-21" value="+ Bio: string" style="text;strokeColor=none;fillColor=none;align=left;verticalAlign=top;spacingLeft=4;spacingRight=4;overflow=hidden;rotatable=0;points=[[0,0.5],[1,0.5]];portConstraint=eastwest;whiteSpace=wrap;html=1;" vertex="1" parent="jGIuu4ucEO6D5iqwrdOe-1">
          <mxGeometry y="430" width="140" height="32" as="geometry" />
        </mxCell>
        <mxCell id="jGIuu4ucEO6D5iqwrdOe-20" value="+ BirthDate: Datetime" style="text;strokeColor=none;fillColor=none;align=left;verticalAlign=top;spacingLeft=4;spacingRight=4;overflow=hidden;rotatable=0;points=[[0,0.5],[1,0.5]];portConstraint=eastwest;whiteSpace=wrap;html=1;" vertex="1" parent="jGIuu4ucEO6D5iqwrdOe-1">
          <mxGeometry y="462" width="140" height="32" as="geometry" />
        </mxCell>
        <mxCell id="jGIuu4ucEO6D5iqwrdOe-26" value="+ Gender: Enum&lt;div&gt;&lt;br&gt;&lt;/div&gt;" style="text;strokeColor=none;fillColor=none;align=left;verticalAlign=top;spacingLeft=4;spacingRight=4;overflow=hidden;rotatable=0;points=[[0,0.5],[1,0.5]];portConstraint=eastwest;whiteSpace=wrap;html=1;" vertex="1" parent="jGIuu4ucEO6D5iqwrdOe-1">
          <mxGeometry y="494" width="140" height="32" as="geometry" />
        </mxCell>
        <mxCell id="jGIuu4ucEO6D5iqwrdOe-25" value="+ CreatedAt: Datetime&lt;div&gt;&lt;br&gt;&lt;div&gt;&lt;br&gt;&lt;/div&gt;&lt;/div&gt;" style="text;strokeColor=none;fillColor=none;align=left;verticalAlign=top;spacingLeft=4;spacingRight=4;overflow=hidden;rotatable=0;points=[[0,0.5],[1,0.5]];portConstraint=eastwest;whiteSpace=wrap;html=1;" vertex="1" parent="jGIuu4ucEO6D5iqwrdOe-1">
          <mxGeometry y="526" width="140" height="32" as="geometry" />
        </mxCell>
        <mxCell id="jGIuu4ucEO6D5iqwrdOe-24" value="+ UpdatedAt: Datetime" style="text;strokeColor=none;fillColor=none;align=left;verticalAlign=top;spacingLeft=4;spacingRight=4;overflow=hidden;rotatable=0;points=[[0,0.5],[1,0.5]];portConstraint=eastwest;whiteSpace=wrap;html=1;" vertex="1" parent="jGIuu4ucEO6D5iqwrdOe-1">
          <mxGeometry y="558" width="140" height="32" as="geometry" />
        </mxCell>
      </root>
    </mxGraphModel>
  </diagram>
</mxfile>
